Coordinates
nRows=9
nColumns=38

# SIMM Motion File Header:
name Coordinates
datacolumns 38
datarows 9
otherdata 1
range 2.01399999999999980000 2.02199999999999980000

Units are S.I. units (second, meters, Newtons, ...)
Angles are in degrees.

endheader
time	pelvis_tilt	pelvis_list	pelvis_rotation	pelvis_tx	pelvis_ty	pelvis_tz	hip_flexion_r	hip_adduction_r	hip_rotation_r	knee_angle_r	ankle_angle_r	subtalar_angle_r	mtp_angle_r	hip_flexion_l	hip_adduction_l	hip_rotation_l	knee_angle_l	ankle_angle_l	subtalar_angle_l	mtp_angle_l	lumbar_extension	lumbar_bending	lumbar_rotation	arm_flex_r	arm_add_r	arm_rot_r	elbow_flex_r	pro_sup_r	wrist_flex_r	wrist_dev_r	arm_flex_l	arm_add_l	arm_rot_l	elbow_flex_l	pro_sup_l	wrist_flex_l	wrist_dev_l
      2.01399999999999980000	     -3.09962910422025530000	     -0.71497009655794241000	     -0.75747536846820762000	      1.04524706751590070000	      1.06753190684597990000	     -0.45016584460100478000	     -6.40986272460008520000	      4.87214774983715500000	     12.58422383678254700000	    -31.02517690088234700000	    -14.24976021467250200000	      0.00000000000002803799	     -0.00000000000010998337	     18.56724221225843500000	     -0.43817881182971852000	      6.33182759085372200000	     -8.13401014585685010000	     11.21794808203719800000	     -0.00000000000000714734	      0.00000000000001655030	     -0.67909891113291809000	     -0.95285276430690569000	     13.70626227076762000000	     -7.12357779732829140000	    -18.67359586473082800000	     15.28901872270575200000	    122.68112713011672000000	     96.69328132139632700000	      0.00000000000000731975	      0.00000000000000658665	    -35.35511191957788700000	     -3.98867655562183380000	    -11.99885333878308600000	    147.86563445081600000000	     89.22081595438760400000	      0.00000000000001809191	      0.00000000000001234429
      2.01500000000000010000	     -3.08107070015644350000	     -0.70123874640006112000	     -0.73418082238693594000	      1.04520627665632840000	      1.06735656836306990000	     -0.45026774124123375000	     -6.31378514393681640000	      4.89569577310687090000	     12.63556850291298900000	    -31.37881098803483900000	    -14.39130618704806100000	      0.00000000000002822533	     -0.00000000000011048465	     18.56036020913410700000	     -0.37385621983970024000	      6.40034061407406880000	     -8.16896121389673620000	     11.22010912199039400000	     -0.00000000000000719851	      0.00000000000001665279	     -0.70213934910363196000	     -0.97712358730205662000	     13.66282235508346200000	     -7.17864212623741250000	    -18.72443639495814700000	     15.26272079474065000000	    122.61213423723235000000	     96.72860303326128000000	      0.00000000000000734451	      0.00000000000000661124	    -35.32415303020417200000	     -3.96459324808510960000	    -12.03142562017238000000	    147.84214503944364000000	     89.28328764912514300000	      0.00000000000001819841	      0.00000000000001241360
      2.01600000000000000000	     -3.06107744364489640000	     -0.68726736342995320000	     -0.71040294131001713000	      1.04516385636459970000	      1.06717443291165750000	     -0.45037042960731938000	     -6.21765663385754670000	      4.91952016803116800000	     12.68629281246719200000	    -31.73436469593495300000	    -14.53245989169855100000	      0.00000000000002841130	     -0.00000000000011098943	     18.55326846824996100000	     -0.30844430799254424000	      6.47357520373147470000	     -8.21166769039558630000	     11.21912308904726500000	     -0.00000000000000724871	      0.00000000000001675477	     -0.72719136589984512000	     -1.00168600664303640000	     13.61832501277025500000	     -7.23428777122040230000	    -18.77469188908624200000	     15.23437331150549800000	    122.54109877848009000000	     96.76396554098967300000	      0.00000000000000736820	      0.00000000000000663590	    -35.29160327205813300000	     -3.94192922751693600000	    -12.06382955905629700000	    147.81739360649416000000	     89.34524171209092500000	      0.00000000000001830524	      0.00000000000001248357
      2.01699999999999990000	     -3.03963709755740160000	     -0.67306989997411049000	     -0.68618510601288674000	      1.04511988345310950000	      1.06698550085846830000	     -0.45047379885099531000	     -6.12154215159330750000	      4.94360221618409050000	     12.73632109765448400000	    -32.09175015511787200000	    -14.67305581808886700000	      0.00000000000002859515	     -0.00000000000011149499	     18.54589650626332200000	     -0.24199346376438996000	      6.55140716702094660000	     -8.26201152301567810000	     11.21480540886683900000	     -0.00000000000000730075	      0.00000000000001685740	     -0.75425735066335242000	     -1.02652920173312360000	     13.57281660644371300000	     -7.29052726557727300000	    -18.82435524677472200000	     15.20399422687492600000	    122.46807001421756000000	     96.79920345672519500000	      0.00000000000000739050	      0.00000000000000666324	    -35.25748140445228500000	     -3.92068874853873920000	    -12.09606318441596600000	    147.79140593572166000000	     89.40668149051632000000	      0.00000000000001841214	      0.00000000000001255422
      2.01799999999999980000	     -3.01674209573224060000	     -0.65866222088386150000	     -0.66156027896236880000	      1.04507442913753800000	      1.06678976417268930000	     -0.45057775331649058000	     -6.02550120917324780000	      4.96792551393445160000	     12.78556908527573200000	    -32.45088167389006600000	    -14.81291070420453200000	      0.00000000000002877913	     -0.00000000000011200016	     18.53818567945469600000	     -0.17455315530352367000	      6.63370635801013190000	     -8.31988191554872710000	     11.20698867583844400000	     -0.00000000000000735109	      0.00000000000001695835	     -0.78333452664671788000	     -1.05164012956007440000	     13.52633337605087300000	     -7.34737356076961580000	    -18.87342032422273900000	     15.17160165619669100000	    122.39309853245854000000	     96.83416013470935000000	      0.00000000000000741274	      0.00000000000000668949	    -35.22180678458164500000	     -3.90087626427610260000	    -12.12812292976118300000	    147.76420780241810000000	     89.46761021562768700000	      0.00000000000001851931	      0.00000000000001262516
      2.01900000000000010000	     -2.99238964354510580000	     -0.64406135417933807000	     -0.63655746381744538000	      1.04502755805284940000	      1.06658720707306400000	     -0.45068220339295634000	     -5.92958629184296360000	      4.99247466409324490000	     12.83395009020452600000	    -32.81167866709394300000	    -14.95182281585572100000	      0.00000000000002896560	     -0.00000000000011250632	     18.53008774005979500000	     -0.10617334160150138000	      6.72033017828272160000	     -8.38517356522985220000	     11.19552672440087100000	     -0.00000000000000740138	      0.00000000000001705849	     -0.81441490875674782000	     -1.07700422544979710000	     13.47890784143588200000	     -7.40483984815501370000	    -18.92188215867691200000	     15.13721370007665200000	    122.31623606393465000000	     96.86868872835783900000	      0.00000000000000743549	      0.00000000000000671458	    -35.18459909183024300000	     -3.88249624542664630000	    -12.16000352578698700000	    147.73582462295681000000	     89.52803114274799200000	      0.00000000000001862715	      0.00000000000001269721
      2.02000000000000000000	     -2.96658184781239380000	     -0.62928514073183195000	     -0.61120470514023839000	      1.04497932740255810000	      1.06637780623887560000	     -0.45078706131332735000	     -5.83384201596155980000	      5.01723468468790660000	     12.88137803522787900000	    -33.17406729264113400000	    -15.08957167959914600000	      0.00000000000002915337	     -0.00000000000011301163	     18.52156442068314100000	     -0.03690505935324074600	      6.81112051702740300000	     -8.45778623323683480000	     11.18029900557437300000	     -0.00000000000000745163	      0.00000000000001715917	     -0.84748532534378385000	     -1.10260578243481680000	     13.43057173220217300000	     -7.46293932473110730000	    -18.96973710343827700000	     15.10084826527745800000	    122.23753527585028000000	     96.90265326897318200000	      0.00000000000000745789	      0.00000000000000673936	    -35.14587799142172000000	     -3.86555312882174200000	    -12.19169797394103000000	    147.70628118507705000000	     89.58794761916385600000	      0.00000000000001873524	      0.00000000000001276979
      2.02099999999999990000	     -2.93931570222663070000	     -0.61435152856320263000	     -0.58552901410470526000	      1.04492978880444530000	      1.06616154700932040000	     -0.45089224155627439000	     -5.73831740121565130000	      5.04218982056455190000	     12.92776806753171900000	    -33.53797762259363000000	    -15.22592100709452900000	      0.00000000000002934193	     -0.00000000000011351613	     18.51257519310724200000	      0.03320040737544580800	      6.90590341345841100000	     -8.53762219768727700000	     11.16120520622198100000	     -0.00000000000000750194	      0.00000000000001726064	     -0.88253915451176435000	     -1.12842897675191130000	     13.38135597457450700000	     -7.52168282831924100000	    -19.01698341721710200000	     15.06252286026281900000	    122.15704971612891000000	     96.93592906534688300000	      0.00000000000000748071	      0.00000000000000676305	    -35.10566065337619100000	     -3.85005115159756080000	    -12.22319731129540800000	    147.67560145144037000000	     89.64736310536847000000	      0.00000000000001884316	      0.00000000000001284190
      2.02199999999999980000	     -2.91056671675685630000	     -0.59927732817135881000	     -0.55955627431527755000	      1.04487899174792400000	      1.06593844994994690000	     -0.45099766139569358000	     -5.64308597310999890000	      5.06732155277101710000	     12.97303741258046400000	    -33.90333868008316600000	    -15.36062272420199000000	      0.00000000000002953169	     -0.00000000000011401988	     18.50305706693792000000	      0.10409286789081089000	      7.00448873628007540000	     -8.62458161350623520000	     11.13815044344063800000	     -0.00000000000000755138	      0.00000000000001736470	     -0.91959534013584032000	     -1.15445956157611710000	     13.33129072800732300000	     -7.58107517476538370000	    -19.06362214774007700000	     15.02225440275502200000	    122.07483381615960000000	     96.96840252674043400000	      0.00000000000000750304	      0.00000000000000678647	    -35.06395795386811200000	     -3.83599406061782270000	    -12.25449021419613200000	    147.64380835472485000000	     89.70628118214287400000	      0.00000000000001895087	      0.00000000000001291502
